<?xml version="1.0" encoding="UTF-8" standalone="no"?>
<!-- Created with Inkscape (http://www.inkscape.org/) -->

<svg
   version="1.1"
   id="svg2"
   xml:space="preserve"
   width="621.00262"
   height="394.07492"
   viewBox="0 0 621.00263 394.07492"
   xmlns="http://www.w3.org/2000/svg"
   xmlns:svg="http://www.w3.org/2000/svg"><defs
     id="defs6"><clipPath
       clipPathUnits="userSpaceOnUse"
       id="clipPath16"><path
         d="M 0,295.557 H 465.753 V 0 H 0 Z"
         id="path14" /></clipPath></defs><g
     id="layer2"
     style="display:inline"><rect
       style="fill:#ffffff"
       id="rect613"
       width="559.58478"
       height="316.4725"
       x="34.974052"
       y="40.518711" /></g><g
     id="layer1"
     style="display:inline"><g
       id="g8"
       transform="matrix(1.3333333,0,0,-1.3333333,0,394.07492)"><g
         id="g10"><g
           id="g12"
           clip-path="url(#clipPath16)"><g
             id="g18"
             transform="translate(158.5971,208.7351)"><path
               d="M 0,0 C 8.924,0 14.589,4.423 14.589,15.676 14.589,26.928 8.924,31.351 0,31.351 -8.924,31.351 -14.589,26.928 -14.589,15.676 -14.589,4.423 -8.924,0 0,0"
               style="fill:#10406c;fill-opacity:1;fill-rule:nonzero;stroke:none"
               id="path20" /></g><g
             id="g22"
             transform="translate(315.9614,238.1462)"><path
               d="M 0,0 H -15.21 V -10.398 H 0.31 c 4.268,0 6.053,1.707 6.053,5.199 C 6.363,-1.009 3.647,0 0,0"
               style="fill:#10406c;fill-opacity:1;fill-rule:nonzero;stroke:none"
               id="path24" /></g><g
             id="g26"
             transform="translate(247.6772,232.9475)"><path
               d="m 0,0 c 0,4.19 -2.716,5.199 -6.363,5.199 h -15.21 V -5.2 h 15.52 C -1.785,-5.2 0,-3.493 0,0"
               style="fill:#10406c;fill-opacity:1;fill-rule:nonzero;stroke:none"
               id="path28" /></g><g
             id="g30"
             transform="translate(412.3774,83.8923)"><path
               d="m 0,0 c 0,10.786 -9.271,10.786 -15.453,10.786 h -25.295 v -22.039 h 25.864 C -11.875,-11.253 0,-11.253 0,0"
               style="fill:#10406c;fill-opacity:1;fill-rule:nonzero;stroke:none"
               id="path32" /></g><g
             id="g34"
             transform="translate(382.5375,235.3527)"><path
               d="M 0,0 -6.519,-18.78 H 6.674 L 0.156,0 Z"
               style="fill:#10406c;fill-opacity:1;fill-rule:nonzero;stroke:none"
               id="path36" /></g><g
             id="g38"
             transform="translate(318.6498,139.6794)"><path
               d="M 0,0 H -18.701 V -8.691 H 0 c 4.346,0 5.665,1.862 5.665,4.345 C 5.665,-1.939 4.346,0 0,0"
               style="fill:#10406c;fill-opacity:1;fill-rule:nonzero;stroke:none"
               id="path40" /></g><g
             id="g42"
             transform="translate(396.8432,69.5359)"><path
               d="m 0,0 h -25.214 v -24.057 h 26.19 c 2.928,0 16.51,0 16.51,12.416 C 17.486,0 6.426,0 0,0"
               style="fill:#10406c;fill-opacity:1;fill-rule:nonzero;stroke:none"
               id="path44" /></g><g
             id="g46"
             transform="translate(321.9096,155.8981)"><path
               d="m 0,0 c 0,2.018 -1.01,3.493 -5.433,3.493 h -16.528 v -7.14 H -5.433 C -1.01,-3.647 0,-2.172 0,0"
               style="fill:#10406c;fill-opacity:1;fill-rule:nonzero;stroke:none"
               id="path48" /></g><g
             id="g50"
             transform="translate(320.5551,63.3278)"><path
               d="M 0,0 H 29.118 L 14.559,30.42 Z"
               style="fill:#10406c;fill-opacity:1;fill-rule:nonzero;stroke:none"
               id="path52" /></g><g
             id="g54"
             transform="translate(89.9931,83.8923)"><path
               d="m 0,0 c 0,10.786 -9.272,10.786 -15.453,10.786 h -25.295 v -22.039 h 25.864 C -11.875,-11.253 0,-11.253 0,0"
               style="fill:#10406c;fill-opacity:1;fill-rule:nonzero;stroke:none"
               id="path56" /></g><g
             id="g58"
             transform="translate(74.4585,69.5359)"><path
               d="M 0,0 H -25.213 V -24.057 H 0.976 c 2.928,0 16.511,0 16.511,12.416 C 17.487,0 6.425,0 0,0"
               style="fill:#10406c;fill-opacity:1;fill-rule:nonzero;stroke:none"
               id="path60" /></g><g
             id="g62"
             transform="translate(396.351,196.7072)"><path
               d="M 0,0 -2.328,6.363 H -25.143 L -27.471,0 h -21.878 -1.403 -22.499 c -0.775,1.629 -0.775,4.035 -1.164,10.476 -0.232,4.113 -1.629,6.596 -5.665,6.596 H -95.6 V 0 h -21.883 v 55.408 h 46.095 c 6.285,0 10.089,-0.544 13.115,-2.018 4.112,-2.018 7.528,-7.372 7.528,-13.425 0,-5.199 -2.174,-10.787 -8.537,-12.65 v -0.154 c 3.26,-0.932 5.897,-3.725 6.286,-8.536 l 0.932,-12.107 c 0.18,-1.93 0.88,-3.762 1.837,-5.286 L -27.16,55.408 H -0.311 L 23.281,0 Z m -2.355,-63.624 v -15.597 h -21.884 v 15.597 l -24.6,39.81 h 24.988 l 10.554,-21.728 10.554,21.728 h 24.988 z m 4.636,-90.708 h -30.744 v 55.408 H 2.851 c 11.143,0 16.918,-4.967 16.918,-13.659 0,-5.431 -2.604,-10.941 -11.387,-12.726 v -0.155 c 11.305,-1.087 13.339,-8.924 13.339,-13.659 0,-5.974 -3.417,-15.209 -19.44,-15.209 m -38.955,0 -8.54,17.848 H -77.26 l -8.54,-17.848 h -4.23 l 26.678,55.408 h 4.229 l 26.679,-55.408 z m -75.389,0 h -3.253 v 13.658 h -0.163 c -4.392,-9.933 -14.234,-14.9 -25.376,-14.9 -17.651,0 -30.908,10.632 -30.908,28.946 0,13.424 9.598,28.946 30.908,28.946 14.234,0 24.725,-6.675 27.573,-18.625 h -3.742 c -2.441,10.243 -12.201,15.52 -23.831,15.52 -16.593,0 -27.166,-11.873 -27.166,-25.841 0,-13.891 9.353,-25.841 27.166,-25.841 14.639,0 24.156,8.613 25.05,22.659 h -23.342 v 3.104 h 27.084 z m -67.747,0 h -3.253 v 13.658 h -0.163 c -4.392,-9.933 -14.233,-14.9 -25.376,-14.9 -17.649,0 -30.907,10.632 -30.907,28.946 0,13.424 9.597,28.946 30.907,28.946 14.233,0 24.726,-6.675 27.572,-18.625 h -3.741 c -2.44,10.243 -12.2,15.52 -23.831,15.52 -16.592,0 -27.166,-11.873 -27.166,-25.841 0,-13.891 9.353,-25.841 27.166,-25.841 14.64,0 24.156,8.613 25.051,22.659 h -23.344 v 3.104 h 27.085 z m -88.163,23.281 v -23.281 h -3.741 v 23.281 l -26.922,32.127 h 5.205 l 23.587,-28.79 24.075,28.79 h 4.718 z m -52.131,-23.281 h -30.744 v 55.408 h 31.314 c 11.143,0 16.918,-4.967 16.918,-13.659 0,-5.431 -2.603,-10.941 -11.387,-12.726 v -0.155 c 11.306,-1.087 13.339,-8.924 13.339,-13.659 0,-5.974 -3.416,-15.209 -19.44,-15.209 m -10.562,130.518 h 26.851 l 23.591,-55.407 h -23.281 l -2.328,6.363 h -22.815 l -2.328,-6.363 h -23.28 z m 10.399,4.656 h -18.78 v 10.244 h 18.78 z m 24.833,0 h -18.78 v 10.244 h 18.78 z m -56.311,74.566 h 24.988 l 22.194,-30.731 h 0.232 v 30.731 h 20.953 V 0 h -23.979 l -23.281,31.041 h -0.154 V 0 h -20.953 z m 74.308,-79.222 h 24.988 l 22.194,-30.73 h 0.233 v 30.73 h 20.952 v -55.407 h -23.978 l -23.281,31.04 h -0.155 v -31.04 h -20.953 z m 39.683,81.162 c 13.27,0 37.869,-0.931 37.869,-29.644 0,-28.713 -24.599,-29.644 -37.869,-29.644 -13.27,0 -37.87,0.931 -37.87,29.644 0,28.713 24.6,29.644 37.87,29.644 m 72.602,-79.222 c 24.366,0 35.929,-6.674 37.636,-20.952 h -24.677 c -0.621,2.871 -2.25,4.656 -4.269,5.665 -2.095,1.008 -4.578,1.319 -7.449,1.319 -8.924,0 -14.589,-4.424 -14.589,-15.676 0,-10.243 5.432,-15.676 16.296,-15.676 7.14,0 10.709,2.794 12.262,6.985 h -9.002 v 12.571 h 31.118 v -31.583 h -9.39 l -2.483,5.044 c -5.665,-5.044 -12.805,-6.985 -25.376,-6.985 -15.365,0 -36.24,3.803 -36.24,29.412 0,24.289 19.4,29.876 36.163,29.876 m -26.978,77.282 h 46.095 c 6.286,0 10.089,-0.544 13.115,-2.018 4.112,-2.018 7.527,-7.372 7.527,-13.425 0,-5.199 -2.172,-10.787 -8.536,-12.65 v -0.154 c 3.259,-0.932 5.898,-3.725 6.285,-8.536 l 0.932,-12.107 c 0.233,-2.483 1.319,-4.811 2.716,-6.518 h -23.901 c -0.777,1.629 -0.777,4.035 -1.165,10.476 -0.232,4.113 -1.629,6.596 -5.665,6.596 h -15.52 V 0 h -21.883 z m 74.309,-79.222 h 49.82 c 11.33,0 16.374,-4.966 16.374,-13.813 0,-4.889 -2.406,-9.157 -6.596,-10.787 v -0.155 c 7.139,-1.862 9.467,-8.536 9.467,-12.649 0,-10.865 -5.432,-18.003 -21.651,-18.003 h -47.414 z m -278.53,-172.894 H 69.401 V 98.849 h -465.752 z"
               style="fill:#10406c;fill-opacity:1;fill-rule:nonzero;stroke:none"
               id="path64" /></g><g
             id="g66"
             transform="translate(79.1879,156.1311)"><path
               d="M 0,0 H -0.155 L -6.673,-18.78 H 6.519 Z"
               style="fill:#10406c;fill-opacity:1;fill-rule:nonzero;stroke:none"
               id="path68" /></g></g></g></g></g></svg>
